<svg width="100" height="100" viewBox="0 0 100 100" fill="none" xmlns="http://www.w3.org/2000/svg">
  <!-- Motion/Animation Icon -->
  <!-- Play button circle -->
  <circle cx="50" cy="50" r="35" fill="none" stroke="#0066FF" stroke-width="3"/>
  
  <!-- Play triangle -->
  <path d="M42 35 L42 65 L68 50 Z" fill="#0066FF"/>
  
  <!-- Motion lines/waves -->
  <path d="M20 25 Q30 20 40 25" fill="none" stroke="#986DFF" stroke-width="2" stroke-linecap="round"/>
  <path d="M60 25 Q70 20 80 25" fill="none" stroke="#986DFF" stroke-width="2" stroke-linecap="round"/>
  
  <path d="M20 35 Q35 30 50 35" fill="none" stroke="#000a94" stroke-width="2" stroke-linecap="round"/>
  <path d="M50 35 Q65 30 80 35" fill="none" stroke="#000a94" stroke-width="2" stroke-linecap="round"/>
  
  <path d="M20 75 Q30 80 40 75" fill="none" stroke="#986DFF" stroke-width="2" stroke-linecap="round"/>
  <path d="M60 75 Q70 80 80 75" fill="none" stroke="#986DFF" stroke-width="2" stroke-linecap="round"/>
  
  <path d="M20 65 Q35 70 50 65" fill="none" stroke="#000a94" stroke-width="2" stroke-linecap="round"/>
  <path d="M50 65 Q65 70 80 65" fill="none" stroke="#000a94" stroke-width="2" stroke-linecap="round"/>
  
  <!-- Small animated dots -->
  <circle cx="25" cy="50" r="2" fill="#986DFF">
    <animate attributeName="opacity" values="0.3;1;0.3" dur="2s" repeatCount="indefinite"/>
  </circle>
  <circle cx="75" cy="50" r="2" fill="#986DFF">
    <animate attributeName="opacity" values="1;0.3;1" dur="2s" repeatCount="indefinite"/>
  </circle>
</svg>
